<svg xmlns="http://www.w3.org/2000/svg" viewBox="0 0 100 100">
  <rect width="100" height="100" rx="22" fill="#eaa83c"/>
  <g fill="#c33764">
    <circle cx="50" cy="50" r="14"/>
    <rect x="47.25" y="6" width="5.5" height="17" rx="2.75"/>
    <rect x="47.25" y="6" width="5.5" height="17" rx="2.75" transform="rotate(45 50 50)"/>
    <rect x="47.25" y="6" width="5.5" height="17" rx="2.75" transform="rotate(90 50 50)"/>
    <rect x="47.25" y="6" width="5.5" height="17" rx="2.75" transform="rotate(135 50 50)"/>
    <rect x="47.25" y="6" width="5.5" height="17" rx="2.75" transform="rotate(180 50 50)"/>
    <rect x="47.25" y="6" width="5.5" height="17" rx="2.75" transform="rotate(225 50 50)"/>
    <rect x="47.25" y="6" width="5.5" height="17" rx="2.75" transform="rotate(270 50 50)"/>
    <rect x="47.25" y="6" width="5.5" height="17" rx="2.75" transform="rotate(315 50 50)"/>
  </g>
</svg>
